<svg class="icon" viewBox="0 0 1024 1024" xmlns="http://www.w3.org/2000/svg" width="200" height="200"><defs><style>*{user-select:text!important}</style></defs><path d="M896 938.667v-85.334c0-158.464-96.47-294.698-233.728-353.322A234.325 234.325 0 0 0 746.667 320c0-129.365-105.302-234.667-234.667-234.667A234.923 234.923 0 0 0 277.333 320c0 72.235 32.896 136.917 84.395 180.01C224.469 558.636 128 694.913 128 853.334v85.334h85.333v-85.334c0-164.65 133.974-298.666 298.667-298.666 164.65 0 298.667 134.016 298.667 298.666v85.334H896zM362.667 320c0-82.347 66.986-149.333 149.333-149.333S661.333 237.653 661.333 320 594.347 469.333 512 469.333 362.667 402.347 362.667 320z"/></svg>